<svg xmlns="http://www.w3.org/2000/svg" viewBox="0 0 760 420" width="760" height="420" font-family="Inter, Segoe UI, sans-serif" role="img">
<title>False positives on stable participants (fpr_controlled threshold)</title>
<rect width="760" height="420" fill="#ffffff"/>
<text x="70" y="26" font-size="15" font-weight="600" fill="#1b1f24">False positives on stable participants (fpr_controlled threshold)</text>
<line x1="70" y1="364.0" x2="550" y2="364.0" stroke="#e4e7eb" stroke-width="1"/>
<text x="60" y="368.0" font-size="11" fill="#6b7280" text-anchor="end">0.00</text>
<line x1="70" y1="300.4" x2="550" y2="300.4" stroke="#e4e7eb" stroke-width="1"/>
<text x="60" y="304.4" font-size="11" fill="#6b7280" text-anchor="end">0.20</text>
<line x1="70" y1="236.8" x2="550" y2="236.8" stroke="#e4e7eb" stroke-width="1"/>
<text x="60" y="240.8" font-size="11" fill="#6b7280" text-anchor="end">0.40</text>
<line x1="70" y1="173.2" x2="550" y2="173.2" stroke="#e4e7eb" stroke-width="1"/>
<text x="60" y="177.2" font-size="11" fill="#6b7280" text-anchor="end">0.60</text>
<line x1="70" y1="109.6" x2="550" y2="109.6" stroke="#e4e7eb" stroke-width="1"/>
<text x="60" y="113.6" font-size="11" fill="#6b7280" text-anchor="end">0.80</text>
<line x1="70" y1="46.0" x2="550" y2="46.0" stroke="#e4e7eb" stroke-width="1"/>
<text x="60" y="50.0" font-size="11" fill="#6b7280" text-anchor="end">1.00</text>
<text x="70.0" y="384" font-size="11" fill="#6b7280" text-anchor="middle">1</text>
<text x="103.1" y="384" font-size="11" fill="#6b7280" text-anchor="middle">3</text>
<text x="136.2" y="384" font-size="11" fill="#6b7280" text-anchor="middle">5</text>
<text x="169.3" y="384" font-size="11" fill="#6b7280" text-anchor="middle">7</text>
<text x="219.0" y="384" font-size="11" fill="#6b7280" text-anchor="middle">10</text>
<text x="285.2" y="384" font-size="11" fill="#6b7280" text-anchor="middle">14</text>
<text x="401.0" y="384" font-size="11" fill="#6b7280" text-anchor="middle">21</text>
<text x="550.0" y="384" font-size="11" fill="#6b7280" text-anchor="middle">30</text>
<text x="310.0" y="404" font-size="12" fill="#374151" text-anchor="middle">baseline window / gate (days of the participant's own history)</text>
<text transform="translate(20,205.0) rotate(-90)" font-size="12" fill="#374151" text-anchor="middle">false positive rate (band: 95% Wilson CI)</text>
<line x1="70" y1="348.1" x2="550" y2="348.1" stroke="#9ca3af" stroke-width="1" stroke-dasharray="5 4"/>
<text x="76" y="342.1" font-size="11" fill="#6b7280">practical bar FPR = 0.05</text>
<polygon points="70.0,197.8 103.1,227.2 136.2,257.7 169.3,277.8 219.0,307.9 285.2,314.2 401.0,314.2 550.0,314.2 550.0,347.5 401.0,347.5 285.2,347.5 219.0,343.5 169.3,322.3 136.2,306.4 103.1,280.4 70.0,253.3" fill="#2f6fdb" fill-opacity="0.12"/>
<polyline points="70.0,226.2 103.1,255.3 136.2,284.5 169.3,303.1 219.0,329.5 285.2,334.9 401.0,334.9 550.0,334.9" fill="none" stroke="#2f6fdb" stroke-width="2"/>
<circle cx="70.0" cy="226.2" r="3" fill="#2f6fdb"/>
<circle cx="103.1" cy="255.3" r="3" fill="#2f6fdb"/>
<circle cx="136.2" cy="284.5" r="3" fill="#2f6fdb"/>
<circle cx="169.3" cy="303.1" r="3" fill="#2f6fdb"/>
<circle cx="219.0" cy="329.5" r="3" fill="#2f6fdb"/>
<circle cx="285.2" cy="334.9" r="3" fill="#2f6fdb"/>
<circle cx="401.0" cy="334.9" r="3" fill="#2f6fdb"/>
<circle cx="550.0" cy="334.9" r="3" fill="#2f6fdb"/>
<line x1="566" y1="54" x2="590" y2="54" stroke="#2f6fdb" stroke-width="2"/>
<text x="596" y="58" font-size="11" fill="#374151">1 entries/day</text>
<polygon points="70.0,166.8 103.1,246.4 136.2,283.6 169.3,298.6 219.0,317.4 285.2,317.4 401.0,327.3 550.0,323.9 550.0,353.1 401.0,354.9 285.2,349.4 219.0,349.4 169.3,337.4 136.2,326.7 103.1,297.1 70.0,222.7" fill="#c0562f" fill-opacity="0.12"/>
<polyline points="70.0,194.4 103.1,273.9 136.2,308.3 169.3,321.6 219.0,337.5 285.2,337.5 401.0,345.4 550.0,342.8" fill="none" stroke="#c0562f" stroke-width="2"/>
<circle cx="70.0" cy="194.4" r="3" fill="#c0562f"/>
<circle cx="103.1" cy="273.9" r="3" fill="#c0562f"/>
<circle cx="136.2" cy="308.3" r="3" fill="#c0562f"/>
<circle cx="169.3" cy="321.6" r="3" fill="#c0562f"/>
<circle cx="219.0" cy="337.5" r="3" fill="#c0562f"/>
<circle cx="285.2" cy="337.5" r="3" fill="#c0562f"/>
<circle cx="401.0" cy="345.4" r="3" fill="#c0562f"/>
<circle cx="550.0" cy="342.8" r="3" fill="#c0562f"/>
<line x1="566" y1="74" x2="590" y2="74" stroke="#c0562f" stroke-width="2"/>
<text x="596" y="78" font-size="11" fill="#374151">3 entries/day</text>
<polygon points="70.0,144.3 103.1,260.5 136.2,298.6 169.3,320.6 219.0,327.3 285.2,323.9 401.0,327.3 550.0,334.2 550.0,358.3 401.0,354.9 285.2,353.1 219.0,354.9 169.3,351.3 136.2,337.4 103.1,308.7 70.0,199.0" fill="#2c8a5f" fill-opacity="0.12"/>
<polyline points="70.0,170.6 103.1,287.1 136.2,321.6 169.3,340.2 219.0,345.4 285.2,342.8 401.0,345.4 550.0,350.8" fill="none" stroke="#2c8a5f" stroke-width="2"/>
<circle cx="70.0" cy="170.6" r="3" fill="#2c8a5f"/>
<circle cx="103.1" cy="287.1" r="3" fill="#2c8a5f"/>
<circle cx="136.2" cy="321.6" r="3" fill="#2c8a5f"/>
<circle cx="169.3" cy="340.2" r="3" fill="#2c8a5f"/>
<circle cx="219.0" cy="345.4" r="3" fill="#2c8a5f"/>
<circle cx="285.2" cy="342.8" r="3" fill="#2c8a5f"/>
<circle cx="401.0" cy="345.4" r="3" fill="#2c8a5f"/>
<circle cx="550.0" cy="350.8" r="3" fill="#2c8a5f"/>
<line x1="566" y1="94" x2="590" y2="94" stroke="#2c8a5f" stroke-width="2"/>
<text x="596" y="98" font-size="11" fill="#374151">5 entries/day</text>
</svg>
